<?xml version="1.0"?><svg width="533.3333333333333" height="533.3333333333333" xmlns="http://www.w3.org/2000/svg">
 <title>person in pink</title>
 <g>
  <title>Layer 1</title>
  <g id="g834">
   <path d="m267.543701,9.46075c-144.697449,1.38212 -139.620529,187.984151 2.539185,189.366735c125.656464,-1.381058 134.542145,-192.131274 -2.539185,-189.366735z" id="path847" stroke-linejoin="round" stroke-width="6.861052" stroke="#000000" fill-rule="evenodd" fill="#ffd4aa"/>
   <path d="m259.701172,18.97645c-6.36203,-10.90539 -116.194016,20.8696 -83.040024,100.7451c18.175995,8.179001 93.037003,-72.572899 83.040024,-100.7451z" id="path849" fill-opacity="0.5" stroke-width="3.75" fill-rule="evenodd" fill="#ffffff"/>
   <path d="m87.032997,268.329987c11.814102,-21.423981 123.594002,-59.099991 175.395012,-56.144989c50.890991,-2.216003 156.309998,27.334 177.212006,55.404999c-61.798004,-8.125 -69.067017,217.192993 -69.067017,217.192993c-85.425995,-73.135986 -113.597992,-83.479004 -218.108002,2.216003c-3.634995,-16.992004 -2.72699,-225.317993 -65.432098,-218.669006l0.000099,0z" id="path842" stroke-linejoin="round" stroke-width="11.091295" stroke="#000000" fill-rule="evenodd" fill="#007f00"/>
   <path d="m216.080154,228.438049c-0.909012,-12.55925 -89.061005,13.297379 -113.598007,34.721283c25.445999,12.558441 49.983002,70.180634 52.709,183.947205c26.354996,-96.037292 68.158997,-147.009979 60.889008,-218.668488z" id="path850" stroke-width="4.15924" fill-rule="evenodd" fill-opacity="0.498039" fill="#ffffff"/>
  </g>
 </g>

</svg>